<svg width="56" height="56" viewBox="0 0 56 56" fill="none" xmlns="http://www.w3.org/2000/svg">
<g clip-path="url(#clip0_946_2963)">
<path d="M31.8698 5.35838C32.0286 5.49645 32.1559 5.66705 32.2431 5.85863C32.3303 6.0502 32.3753 6.25828 32.375 6.46875V7.9375H33.8438C35.0124 7.9375 36.1331 8.40173 36.9594 9.22806C37.7858 10.0544 38.25 11.1751 38.25 12.3438V49.0625H43.6562C44.0458 49.0625 44.4194 49.2172 44.6948 49.4927C44.9703 49.7681 45.125 50.1417 45.125 50.5312C45.125 50.9208 44.9703 51.2944 44.6948 51.5698C44.4194 51.8453 44.0458 52 43.6562 52H3.46875C3.07921 52 2.70563 51.8453 2.43019 51.5698C2.15474 51.2944 2 50.9208 2 50.5312C2 50.1417 2.15474 49.7681 2.43019 49.4927C2.70563 49.2172 3.07921 49.0625 3.46875 49.0625H8.875V9.40625C8.87505 9.05238 9.00287 8.71042 9.23494 8.44327C9.46701 8.17612 9.78774 8.00173 10.1381 7.95219L30.7006 5.01469C30.9087 4.98497 31.1208 5.00027 31.3225 5.05956C31.5242 5.11886 31.7108 5.22076 31.8698 5.35838ZM33.8438 10.875H32.375V49.0625H35.3125V12.3438C35.3125 11.9542 35.1578 11.5806 34.8823 11.3052C34.6069 11.0297 34.2333 10.875 33.8438 10.875ZM11.8125 10.6811V49.0625H29.4375V8.16369L11.8125 10.6811Z" fill="white"/>
<path d="M25.5 18.5L16.5 27.5" stroke="white" stroke-width="3" stroke-linecap="round" stroke-linejoin="round"/>
<path d="M25.5 26L16.5 35" stroke="white" stroke-width="3" stroke-linecap="round" stroke-linejoin="round"/>
</g>
<defs>
<clipPath id="clip0_946_2963">
<rect width="47" height="47" fill="black" transform="translate(0 5)"/>
</clipPath>
</defs>
</svg>
