<svg width="57" height="56" viewBox="0 0 57 56" fill="none" xmlns="http://www.w3.org/2000/svg">
<path d="M29.1198 5.35844C29.2786 5.49651 29.4059 5.66711 29.4931 5.85869C29.5803 6.05027 29.6253 6.25834 29.625 6.46881V7.93756H31.0938C32.2624 7.93756 33.3831 8.40179 34.2094 9.22813C35.0358 10.0545 35.5 11.1752 35.5 12.3438V49.0626H39.9062C40.2958 49.0626 40.6694 49.2173 40.9448 49.4927C41.2203 49.7682 41.375 50.1418 41.375 50.5313C41.375 50.9208 41.2203 51.2944 40.9448 51.5699C40.6694 51.8453 40.2958 52.0001 39.9062 52.0001H1.71875C1.32921 52.0001 0.955631 51.8453 0.680187 51.5699C0.404743 51.2944 0.25 50.9208 0.25 50.5313C0.25 50.1418 0.404743 49.7682 0.680187 49.4927C0.955631 49.2173 1.32921 49.0626 1.71875 49.0626H6.125V9.40631C6.12505 9.05244 6.25287 8.71048 6.48494 8.44333C6.71701 8.17618 7.03774 8.00179 7.38813 7.95225L27.9506 5.01475C28.1587 4.98503 28.3708 5.00033 28.5725 5.05963C28.7742 5.11892 28.9608 5.22082 29.1198 5.35844ZM31.0938 10.8751H29.625V49.0626H32.5625V12.3438C32.5625 11.9543 32.4078 11.5807 32.1323 11.3053C31.8569 11.0298 31.4833 10.8751 31.0938 10.8751ZM9.0625 10.6812V49.0626H26.6875V8.16375L9.0625 10.6812Z" fill="white"/>
<ellipse cx="17.4754" cy="18.3416" rx="1.84323" ry="2.12681" transform="rotate(7.21862 17.4754 18.3416)" fill="white"/>
<rect x="17.2109" y="27.2744" width="7.84438" height="2.27287" rx="0.787555" transform="rotate(-9.35125 17.2109 27.2744)" fill="white"/>
<circle cx="23.7742" cy="28.0208" r="1.5" transform="rotate(-2.00505 23.7742 28.0208)" fill="white"/>
</svg>
