<svg width="57" height="56" viewBox="0 0 57 56" fill="none" xmlns="http://www.w3.org/2000/svg">
<g clip-path="url(#clip0_946_2950)">
<path d="M32.3073 5.35838C32.4661 5.49645 32.5934 5.66705 32.6806 5.85863C32.7678 6.0502 32.8128 6.25828 32.8125 6.46875V7.9375H34.2812C35.4499 7.9375 36.5706 8.40173 37.3969 9.22806C38.2233 10.0544 38.6875 11.1751 38.6875 12.3438V49.0625H43.0938C43.4833 49.0625 43.8569 49.2172 44.1323 49.4927C44.4078 49.7681 44.5625 50.1417 44.5625 50.5312C44.5625 50.9208 44.4078 51.2944 44.1323 51.5698C43.8569 51.8453 43.4833 52 43.0938 52H4.90625C4.51671 52 4.14313 51.8453 3.86769 51.5698C3.59224 51.2944 3.4375 50.9208 3.4375 50.5312C3.4375 50.1417 3.59224 49.7681 3.86769 49.4927C4.14313 49.2172 4.51671 49.0625 4.90625 49.0625H9.3125V9.40625C9.31255 9.05238 9.44037 8.71042 9.67244 8.44327C9.90451 8.17612 10.2252 8.00173 10.5756 7.95219L31.1381 5.01469C31.3462 4.98497 31.5583 5.00027 31.76 5.05956C31.9617 5.11886 32.1483 5.22076 32.3073 5.35838V5.35838ZM34.2812 10.875H32.8125V49.0625H35.75V12.3438C35.75 11.9542 35.5953 11.5806 35.3198 11.3052C35.0444 11.0297 34.6708 10.875 34.2812 10.875V10.875ZM12.25 10.6811V49.0625H29.875V8.16369L12.25 10.6811Z" fill="white"/>
<path d="M25.9606 22.1283C25.518 25.6228 22.793 27.775 20.2463 27.4524C17.6995 27.1299 15.5972 24.3662 16.0398 20.8717C16.4824 17.3772 19.2074 15.225 21.7541 15.5475C24.3009 15.8701 26.4032 18.6338 25.9606 22.1283Z" stroke="white" stroke-width="3"/>
</g>
<defs>
<clipPath id="clip0_946_2950">
<rect width="47" height="47" fill="black" transform="translate(0.5 5)"/>
</clipPath>
</defs>
</svg>
