<svg width="57" height="56" viewBox="0 0 57 56" fill="none" xmlns="http://www.w3.org/2000/svg">
<line x1="6.25" y1="50.5" x2="51.25" y2="50.5" stroke="white" stroke-width="3" stroke-linecap="round"/>
<rect x="10.75" y="7" width="18" height="43" stroke="white" stroke-width="3" stroke-linejoin="round"/>
<rect x="28.75" y="7" width="18" height="43" stroke="white" stroke-width="3" stroke-linejoin="round"/>
<path d="M21.75 27C21.75 27.5304 21.908 28.0391 22.1893 28.4142C22.4706 28.7893 22.8522 29 23.25 29C23.6478 29 24.0294 28.7893 24.3107 28.4142C24.592 28.0391 24.75 27.5304 24.75 27C24.75 26.4696 24.592 25.9609 24.3107 25.5858C24.0294 25.2107 23.6478 25 23.25 25C22.8522 25 22.4706 25.2107 22.1893 25.5858C21.908 25.9609 21.75 26.4696 21.75 27Z" fill="white"/>
<path d="M32.75 27C32.75 27.5304 32.908 28.0391 33.1893 28.4142C33.4706 28.7893 33.8522 29 34.25 29C34.6478 29 35.0294 28.7893 35.3107 28.4142C35.592 28.0391 35.75 27.5304 35.75 27C35.75 26.4696 35.592 25.9609 35.3107 25.5858C35.0294 25.2107 34.6478 25 34.25 25C33.8522 25 33.4706 25.2107 33.1893 25.5858C32.908 25.9609 32.75 26.4696 32.75 27Z" fill="white"/>
</svg>
