<?xml version="1.0" encoding="UTF-8"?>
<svg id="Layer_2" data-name="Layer 2" xmlns="http://www.w3.org/2000/svg" xmlns:xlink="http://www.w3.org/1999/xlink" viewBox="0 0 600 650">
  <defs>
    <style>
      .cls-1, .cls-2, .cls-3 {
        fill: none;
      }

      .cls-2 {
        clip-path: url(#clippath-1);
      }

      .cls-4 {
        fill: #f8cf45;
      }

      .cls-5 {
        fill: #434b58;
      }

      .cls-3 {
        clip-path: url(#clippath);
      }
    </style>
    <clipPath id="clippath">
      <circle class="cls-1" cx="300" cy="300" r="200"/>
    </clipPath>
    <clipPath id="clippath-1">
      <rect class="cls-1" x="78.67" y="128.07" width="437.25" height="518.25"/>
    </clipPath>
  </defs>
  <g id="Layer_1-2" data-name="Layer 1">
    <polygon class="cls-1" points="600 600 300 600 0 600 0 300 0 0 300 0 600 0 600 300 600 600"/>
    <g class="cls-3">
      <rect class="cls-4" x="100" y="100" width="400" height="400"/>
    </g>
    <g class="cls-2">
      <path class="cls-5" d="m306.62,524.64c-4.83-11.93-11.88-22.86-20.02-32.79-8.09-10-17.1-19.2-25.98-28.49-8.92-9.25-17.54-18.81-25.5-28.91-7.96-10.1-15.32-20.67-22.1-31.59-6.73-10.96-12.84-22.29-18.31-33.93-2.67-5.85-5.3-11.72-7.64-17.71-2.41-5.96-4.56-12.03-6.28-18.23-1.71-6.2-3-12.53-3.54-18.94-.53-6.4-.37-12.92,1.09-19.21,1.43-6.28,4.17-12.27,8.1-17.38,1.92-2.6,4.28-4.83,6.7-6.94,2.55-1.97,5.2-3.83,8.08-5.28,5.71-2.98,11.92-5,18.27-6.04,6.35-1.06,12.83-1.3,19.25-.81,1.61.11,3.2.34,4.8.51l4.76.83c.79.15,1.59.25,2.37.44l2.34.57c1.56.41,3.14.72,4.68,1.2,3.06.98,6.16,1.88,9.13,3.13,3.04,1.09,5.92,2.53,8.85,3.87,23.08,11.53,42.09,30.55,54.65,53.01,3.1,5.65,5.86,11.47,8.25,17.45.62,1.49,1.13,3.02,1.7,4.52.56,1.51,1.12,3.02,1.58,4.56l1.47,4.6,1.28,4.66c.45,1.55.82,3.11,1.17,4.68.35,1.57.75,3.13,1.07,4.71.6,3.17,1.26,6.32,1.7,9.51,1.02,6.36,1.64,12.77,2.02,19.2.42,6.43.39,12.88.26,19.31-.24,6.43-.65,12.86-1.39,19.26-.75,6.4-1.85,12.77-3.54,19.01-1.72,6.22-4.03,12.31-7.21,17.95-3.21,5.62-7.26,10.8-12.17,15.05-4.89,4.24-10.58,7.68-16.85,9.51-3.12.94-6.36,1.46-9.62,1.61-3.26.08-6.51-.17-9.72-.73-3.19-.63-6.32-1.52-9.36-2.62-3.03-1.15-5.99-2.46-8.88-3.91-5.77-2.93-11.26-6.32-16.67-9.8l-16.22-10.44c-10.8-6.98-21.59-13.97-32.28-21.11-10.7-7.14-21.34-14.37-31.83-21.82-10.49-7.46-20.84-15.1-31.01-22.99-10.16-7.9-20.09-16.11-29.77-24.59l-7.21-6.43-7.08-6.57c-2.37-2.18-4.68-4.49-6.84-6.92-2.19-2.4-4.21-4.96-6.09-7.63-3.7-5.34-6.85-11.32-7.81-17.99-.53-3.3-.29-6.77.71-10,.24-.82.47-1.63.87-2.38.37-.76.69-1.55,1.11-2.29.46-.71.86-1.47,1.41-2.12l.78-1.01.86-.93c2.32-2.49,5.22-4.34,8.28-5.67,3.07-1.35,6.35-2.12,9.67-2.43,3.31-.33,6.69-.12,9.92.52,3.25.61,6.41,1.59,9.45,2.83,6.09,2.45,11.7,5.8,17.15,9.23,5.39,3.53,10.87,6.95,16.11,10.71,5.34,3.61,10.47,7.53,15.64,11.38,2.56,1.96,5.06,4,7.59,6l3.78,3.02,3.69,3.13c39.47,33.22,72.88,73.67,97.87,118.86l2.71,4.9-4.98-2.56c-49.78-25.58-92.7-63.91-124.81-109.68-16.08-22.89-29.47-47.69-39.67-73.76-5.11-13.03-9.42-26.37-12.89-39.94l-1.28-5.09c-.42-1.7-.77-3.42-1.15-5.13l-1.13-5.13-.98-5.16-.97-5.17c-.31-1.8-.49-3.62-.58-5.47-.16-3.67.11-7.51,1.62-11.28.77-1.87,2.01-3.71,3.72-5.1,1.72-1.38,3.78-2.26,5.94-2.56,2.17-.28,4.29.06,6.19.66,1.9.62,3.61,1.49,5.21,2.43,1.6.95,3.1,2,4.51,3.06l4.16,3.18,8.33,6.36c2.82,2.07,5.45,4.38,8.15,6.59l8.08,6.68c5.28,4.57,10.44,9.3,15.66,13.94,20.43,19.08,39.29,39.84,56.36,61.99,34.14,44.28,61.07,94.17,79.01,147.2l3.04,8.98-7.66-5.6c-51.18-37.41-89.6-91.46-109.22-151.65l-3.45-11.36c-.62-1.88-1.06-3.81-1.53-5.74l-1.43-5.76-1.43-5.77-1.12-5.83-1.12-5.83c-.36-1.95-.78-3.88-1-5.85-2.39-15.64-3.9-31.51-2.87-47.53.24-4,.66-7.99,1.28-11.96.59-3.98,1.4-7.94,2.43-11.84,1-3.91,2.25-7.77,3.76-11.55,1.47-3.79,3.24-7.45,5.23-11,1.96-3.57,4.23-6.96,6.7-10.21,2.45-3.27,5.22-6.3,8.18-9.13,2.94-2.86,6.2-5.4,9.63-7.68,3.42-2.3,7.11-4.23,10.95-5.76,7.66-3.16,15.96-4.68,24.19-4.68,8.24-.02,16.4,1.48,24.13,4.05,15.46,5.19,29.34,14.5,40.21,26.58,10.79,12.15,18.55,26.55,24.02,41.54,5.49,15.02,8.88,30.62,11.3,46.22,4.68,31.22,6.55,62.74,6.3,94.22-.28,31.49-2.75,62.92-6.95,94.08l-.99,7.33-4.87-5.57c-4.2-4.8-7.46-10.37-9.79-16.21-2.34-5.85-3.8-11.96-4.67-18.07-1.71-12.25-1.22-24.51-.09-36.5,2.29-23.94,6.3-47.72,12.4-70.99,11.93-46.61,31.55-91.13,57.57-131.62,3.39-5.1,7.17-10.1,12.02-14.32,2.42-2.1,5.13-4,8.19-5.4,3.05-1.4,6.49-2.25,9.97-2.22,3.46-.02,6.94.88,9.98,2.42,3.06,1.53,5.7,3.66,7.94,6,4.49,4.73,7.62,10.25,10.18,15.86,9.95,22.28,14.53,46.65,14.66,70.85,0,24.24-4.24,48.32-11.59,71.3-7.52,22.97-18.22,44.71-30.66,65.26-12.53,20.52-26.82,39.85-41.84,58.48-7.53,9.31-15.25,18.45-23.05,27.5-1.96,2.26-3.87,4.52-5.91,6.79-2.04,2.26-4.22,4.5-6.71,6.5-2.51,1.99-5.28,3.72-8.51,4.81-3.22,1.04-6.66,1.31-10.04.72-3.35-.59-6.76-2.27-9.08-5.11-2.37-2.79-3.3-6.51-3.28-9.86.04-3.38.81-6.54,1.81-9.51.99-3,2.28-5.75,3.51-8.46l3.71-8.21c1.29-2.71,2.66-5.38,3.98-8.08,2.58-5.43,5.58-10.63,8.41-15.92,5.98-10.41,12.19-20.7,19.11-30.51,3.33-4.99,6.99-9.75,10.55-14.58,1.77-2.43,3.71-4.71,5.56-7.08,1.89-2.33,3.69-4.73,5.68-6.98,15.47-18.34,32.48-35.41,51.09-50.56,9.2-7.7,18.95-14.7,28.84-21.53,5.04-3.34,10.34-6.46,16.23-8.51,2.94-1.02,6.02-1.76,9.2-1.98,3.18-.22,6.46.11,9.53,1.13,3.09.99,5.94,2.72,8.32,4.89,2.36,2.19,4.26,4.81,5.73,7.61,2.96,5.6,4.09,12.06,3.7,18.25-.38,6.21-2.02,12.21-4.15,17.88-1.06,2.84-2.24,5.63-3.48,8.36l-3.89,8.13c-5.36,10.74-11.28,21.23-18.11,31.11l-2.5,3.74-2.67,3.63c-1.8,2.4-3.54,4.85-5.38,7.22-3.81,4.64-7.5,9.38-11.59,13.77-3.91,4.56-8.21,8.75-12.39,13.05-2.15,2.09-4.38,4.1-6.57,6.15-1.1,1.02-2.18,2.06-3.3,3.05l-3.43,2.91c-9.04,7.9-18.77,14.97-28.8,21.53l-7.6,4.81-7.82,4.45c-2.58,1.53-5.27,2.86-7.95,4.21l-4.01,2.03-2.01,1.02-2.05.93c-5.5,2.4-10.84,5.09-16.67,6.94-2.89.94-5.9,1.66-8.99,1.97-3.09.31-6.29.14-9.33-.73-3.03-.91-5.89-2.43-8.27-4.49-2.39-2.05-4.33-4.55-5.89-7.21-3.09-5.36-4.87-11.24-6.19-17.11-.66-2.95-1.15-5.92-1.63-8.86l-1.47-8.84c-.47-2.95-.87-5.92-1.3-8.87-.42-2.96-.89-5.91-1.22-8.88-3.01-23.72-4.91-47.57-5.67-71.45-.82-23.88-.71-47.78.14-71.66.38-11.94,1.02-23.86,1.69-35.78.4-5.96.73-11.92,1.18-17.88.45-5.96,1.06-11.94,2.31-17.83,1.26-5.87,3.15-11.68,6.17-16.94,3.04-5.22,7.14-9.88,12.19-13.26,5.02-3.39,11.14-5.32,17.25-4.9,6.1.38,11.9,2.89,16.73,6.49,4.87,3.6,8.83,8.35,11.76,13.6,2.97,5.25,5.05,10.93,6.69,16.68,1.63,5.77,2.86,11.62,3.98,17.48l1.73,8.79,1.43,8.85c1.96,11.79,3.19,23.68,4.22,35.58l.53,8.94c.15,2.98.41,5.96.43,8.94.1,5.97.39,11.94.23,17.92-.19,23.88-2.17,47.77-6.35,71.29-4.17,23.52-10.31,46.68-18.44,69.13-8.15,22.44-18.24,44.15-25.33,66.95-3.54,11.38-6.34,23.05-7.47,34.92-.23,2.97-.58,5.94-.56,8.92l-.09,4.47c0,1.49.13,2.98.18,4.47.09,1.49.11,2.98.24,4.46.16,1.48.44,2.94.72,4.41.59,2.92,1.25,5.83,1.92,8.74,2.68,11.62,5.4,23.27,6.93,35.12.74,5.92,1.23,11.9.83,17.87-.23,2.97-.67,5.96-1.68,8.78-1,2.79-2.68,5.49-5.31,7.04-2.6,1.58-5.78,1.75-8.71,1.36-2.97-.41-5.82-1.4-8.56-2.56-1.38-.56-2.72-1.25-3.98-2.06-1.22-.86-2.41-1.79-3.39-2.92-2.02-2.21-3.47-4.91-4.41-7.74-1.89-5.7-2.1-11.77-2-17.71.11-5.97.7-11.92.71-17.89,0-11.93.04-23.88-1.01-35.77-1.04-11.87-3.26-23.73-7.67-34.84m0,0c4.42,11.11,6.64,22.97,7.7,34.84,1.06,11.89,1.03,23.85,1.04,35.77,0,5.97-.6,11.92-.7,17.89-.09,5.94.12,12.01,2.02,17.69.94,2.82,2.38,5.5,4.39,7.7.98,1.13,2.16,2.05,3.38,2.9,1.25.81,2.58,1.49,3.96,2.05,2.74,1.15,5.59,2.14,8.54,2.54,2.92.39,6.07.21,8.64-1.35,2.59-1.52,4.25-4.2,5.24-6.98,1-2.81,1.44-5.78,1.66-8.75.4-5.96-.1-11.93-.84-17.84-1.54-11.83-4.27-23.47-6.96-35.09-.67-2.91-1.34-5.82-1.93-8.75-.29-1.47-.57-2.93-.73-4.42-.13-1.49-.16-2.98-.25-4.47-.06-1.49-.18-2.98-.19-4.47l.09-4.48c-.02-2.99.33-5.96.55-8.94,1.12-11.9,3.91-23.58,7.45-34.98,7.07-22.83,17.16-44.55,25.26-66.99,8.07-22.45,14.14-45.61,18.25-69.11,4.11-23.5,6.02-47.36,6.16-71.21.15-5.96-.16-11.92-.28-17.88-.03-2.98-.3-5.96-.45-8.93l-.55-8.93c-1.06-11.88-2.32-23.74-4.3-35.5l-1.45-8.82-1.75-8.77c-1.13-5.85-2.37-11.69-4.01-17.41-1.64-5.7-3.71-11.31-6.64-16.45-2.89-5.15-6.77-9.76-11.52-13.26-4.71-3.49-10.33-5.9-16.19-6.25-5.85-.38-11.7,1.49-16.54,4.78-4.87,3.28-8.84,7.82-11.77,12.92-2.92,5.11-4.76,10.81-5.96,16.59-1.21,5.8-1.79,11.73-2.21,17.67-.42,5.94-.73,11.9-1.1,17.85-.63,11.91-1.21,23.83-1.54,35.75-.75,23.84-.77,47.71.15,71.53.87,23.83,2.85,47.61,5.96,71.23.34,2.96.82,5.9,1.25,8.85.45,2.94.85,5.9,1.33,8.83l1.51,8.81c.5,2.94.99,5.87,1.65,8.74,1.31,5.74,3.08,11.41,5.99,16.4,1.46,2.48,3.26,4.75,5.4,6.58,2.14,1.84,4.67,3.16,7.35,3.96,5.44,1.52,11.35.54,16.86-1.29,5.56-1.79,10.92-4.49,16.34-6.88l2.02-.93,1.98-1.01,3.96-2.03c2.64-1.35,5.3-2.68,7.85-4.2l7.72-4.43,7.51-4.79c9.9-6.54,19.5-13.57,28.41-21.42l3.38-2.9c1.11-.99,2.17-2.02,3.26-3.03,2.15-2.04,4.35-4.04,6.47-6.11,4.12-4.27,8.36-8.43,12.2-12.96,4.03-4.36,7.66-9.06,11.4-13.66,1.81-2.35,3.52-4.77,5.29-7.15l2.62-3.6,2.46-3.7c6.71-9.79,12.5-20.17,17.75-30.79l3.81-8.04c1.21-2.7,2.34-5.43,3.36-8.17,2.04-5.49,3.54-11.16,3.87-16.88.14-2.87-.01-5.7-.57-8.46-.55-2.77-1.48-5.46-2.8-7.93-1.31-2.47-2.98-4.74-5-6.6-2.04-1.83-4.41-3.26-7.01-4.08-5.21-1.73-11-1.02-16.35.89-5.4,1.9-10.47,4.89-15.34,8.15-9.73,6.78-19.37,13.75-28.43,21.41-18.36,15.07-35.11,32.03-50.34,50.24-1.96,2.23-3.72,4.62-5.59,6.93-1.82,2.34-3.73,4.61-5.47,7.02-3.5,4.79-7.1,9.51-10.37,14.46-6.8,9.73-12.9,19.93-18.77,30.23-2.77,5.25-5.71,10.4-8.24,15.77-1.3,2.67-2.64,5.31-3.9,8l-3.63,8.12c-1.22,2.72-2.45,5.39-3.32,8.07-.9,2.68-1.51,5.4-1.53,8,.02,2.57.68,4.99,2.22,6.79,1.48,1.79,3.74,2.96,6.24,3.4,2.5.43,5.19.22,7.64-.59,2.43-.83,4.81-2.27,6.96-4,4.31-3.5,7.99-8.2,11.91-12.71,7.74-9.06,15.39-18.19,22.83-27.47,14.86-18.58,28.92-37.79,41.2-58.08,12.18-20.31,22.6-41.73,29.85-64.19,7.09-22.5,11.17-45.99,11.11-69.52-.18-23.49-4.69-46.99-14.28-68.34-2.38-5.21-5.29-10.2-9.05-14.13-3.74-3.92-8.46-6.54-13.51-6.48-5.02-.04-9.9,2.5-14.02,6.13-4.17,3.64-7.68,8.24-10.86,13.07-25.51,39.88-44.72,83.9-56.44,129.81-5.99,22.93-9.92,46.37-12.15,69.95-1.1,11.75-1.52,23.52.08,34.94.81,5.69,2.17,11.28,4.26,16.51,2.1,5.23,4.96,10.1,8.63,14.29l-5.86,1.76c4.15-30.92,6.57-62.08,6.81-93.24.24-31.15-1.68-62.37-6.27-93.12-2.37-15.33-5.66-30.5-10.93-44.93-5.23-14.39-12.63-28.06-22.67-39.37-10.05-11.2-23.03-19.91-37.28-24.7-7.12-2.38-14.58-3.75-22.02-3.73-7.43,0-14.83,1.35-21.65,4.16-3.42,1.36-6.72,3.08-9.8,5.15-3.09,2.05-6.04,4.33-8.71,6.94-2.69,2.58-5.24,5.34-7.49,8.34-2.27,2.98-4.37,6.11-6.18,9.41-7.43,13.14-10.92,28.28-11.9,43.52-1,15.29.45,30.79,2.77,46.09.21,1.93.62,3.82.98,5.72l2.16,11.41,1.38,5.64,1.38,5.64c.46,1.88.88,3.77,1.49,5.62l3.35,11.13c19.05,58.96,56.59,112.06,106.61,148.8l-4.62,3.38c-17.61-52.42-44.08-101.81-77.65-145.78-16.79-21.98-35.37-42.6-55.52-61.57-5.15-4.62-10.23-9.32-15.45-13.86l-7.96-6.65c-2.67-2.2-5.26-4.49-8.04-6.55l-8.22-6.34c-2.75-2.09-5.46-4.35-8.21-5.98-2.75-1.67-5.7-2.81-8.3-2.49-1.28.17-2.52.71-3.52,1.5-1,.8-1.8,1.91-2.35,3.25-1.11,2.69-1.43,5.96-1.29,9.21.06,1.63.23,3.27.5,4.9l.93,5.08.95,5.09,1.09,5.06c.37,1.68.71,3.38,1.11,5.06l1.25,5.02c3.36,13.39,7.57,26.58,12.56,39.46,9.96,25.77,23.09,50.33,38.89,73.02,31.56,45.38,73.87,83.48,123.02,108.99l-2.28,2.34c-24.6-44.92-57.61-85.22-96.68-118.38l-3.65-3.13-3.75-3.01c-2.51-2-4.98-4.03-7.51-5.99-5.13-3.84-10.2-7.75-15.5-11.36-5.19-3.76-10.62-7.18-15.96-10.71-5.4-3.43-10.88-6.72-16.72-9.1-2.92-1.2-5.92-2.14-8.98-2.73-3.06-.62-6.16-.82-9.26-.52-3.08.28-6.14.98-8.96,2.21-2.82,1.21-5.46,2.89-7.55,5.11l-.78.83-.7.9c-.49.58-.85,1.25-1.27,1.88-.37.66-.66,1.37-1,2.05-.37.67-.57,1.41-.79,2.13-.91,2.89-1.15,6-.67,9.05.85,6.13,3.81,11.89,7.37,17.07,1.81,2.59,3.77,5.09,5.9,7.45,2.11,2.38,4.34,4.64,6.68,6.82l7.03,6.58,7.16,6.43c9.62,8.49,19.49,16.72,29.59,24.64,10.11,7.91,20.41,15.58,30.85,23.07,10.45,7.48,21.04,14.75,31.7,21.92,10.66,7.18,21.41,14.22,32.18,21.24l16.17,10.5c5.39,3.49,10.83,6.89,16.52,9.81,2.85,1.44,5.77,2.75,8.75,3.89,3,1.09,6.06,1.98,9.17,2.6,3.13.56,6.3.83,9.47.75,3.17-.15,6.32-.64,9.35-1.54,6.11-1.77,11.68-5.11,16.49-9.27,4.83-4.15,8.83-9.24,12-14.76,3.15-5.55,5.45-11.57,7.17-17.72,1.69-6.17,2.79-12.5,3.56-18.87.75-6.37,1.18-12.78,1.44-19.19.15-6.42.19-12.84-.21-19.24-.36-6.4-.96-12.8-1.97-19.14-.43-3.18-1.08-6.32-1.67-9.47-.31-1.58-.7-3.13-1.05-4.69-.35-1.57-.72-3.13-1.16-4.67l-1.26-4.64-1.45-4.59c-.46-1.54-1.01-3.04-1.56-4.55-.56-1.5-1.07-3.02-1.68-4.51-2.37-5.96-5.11-11.77-8.17-17.41-12.45-22.39-31.34-41.4-54.32-52.94-2.92-1.34-5.78-2.79-8.81-3.88-2.96-1.25-6.04-2.17-9.09-3.15-1.53-.48-3.11-.8-4.66-1.21l-2.34-.58c-.78-.19-1.58-.29-2.36-.44l-4.74-.84c-1.6-.17-3.18-.4-4.78-.51-6.4-.49-12.85-.26-19.18.79-6.33,1.03-12.51,3.04-18.2,6-2.87,1.45-5.51,3.29-8.04,5.25-2.42,2.1-4.77,4.31-6.67,6.89-3.92,5.08-6.64,11.03-8.08,17.28-1.45,6.26-1.62,12.75-1.1,19.14.54,6.4,1.81,12.72,3.52,18.91,1.71,6.19,3.85,12.26,6.26,18.22,2.33,5.99,4.95,11.86,7.62,17.71,5.46,11.64,11.56,22.97,18.28,33.93,6.77,10.93,14.11,21.5,22.06,31.6,7.96,10.1,16.56,19.67,25.48,28.92,8.87,9.3,17.87,18.51,25.95,28.52,8.14,9.94,15.18,20.87,19.99,32.81Z"/>
    </g>
  </g>
</svg>