<?xml version="1.0" encoding="UTF-8"?>
<svg id="Layer_2" data-name="Layer 2" xmlns="http://www.w3.org/2000/svg" xmlns:xlink="http://www.w3.org/1999/xlink" viewBox="0 0 600 650">
  <defs>
    <style>
      .cls-1, .cls-2, .cls-3 {
        fill: none;
      }

      .cls-2 {
        clip-path: url(#clippath-1);
      }

      .cls-4 {
        fill: #f8cf45;
      }

      .cls-5 {
        fill: #434b58;
      }

      .cls-3 {
        clip-path: url(#clippath);
      }
    </style>
    <clipPath id="clippath">
      <circle class="cls-1" cx="300" cy="300" r="200"/>
    </clipPath>
    <clipPath id="clippath-1">
      <rect class="cls-1" x="156.64" y="53.44" width="253.89" height="438.16"/>
    </clipPath>
  </defs>
  <g id="Layer_1-2" data-name="Layer 1">
    <polygon class="cls-1" points="600 600 300 600 0 600 0 300 0 0 300 0 600 0 600 300 600 600"/>
    <g class="cls-3">
      <rect class="cls-4" x="100" y="100" width="400" height="400"/>
    </g>
    <g class="cls-2">
      <path class="cls-5" d="m165.84,71.2c-.28.04-.57.08-.85.11-5.32,35.42-1.09,70.83,1.28,106.28.17,40.97,12.75,85.53,45.36,112.44,23.28,19.07,52.08,30.46,73.45,51.98,19.21,19.47,43.71,33.39,60.13,55.46,4.9-94.73-25.97-150.42-98.39-209.48-38.3-29.77-67.03-70.25-80.98-116.8Zm225.18,313.65c-12.34,18.91-22.62,44.48-20.73,67.05,3.09-19.63,6.05-39.25,16.21-56.65,2.18-4.86,6.14-8.76,6.98-14.18-.36,1.19-2.06,3.13-2.46,3.79Zm-25.01,52.15c2.97-15.77,7.39-31.25,15.32-45.3,1.36-3.93,28.16-41.51,29.15-27.84-5.63,10.19-12.44,19.73-18.02,29.97-14.24,24.3-18.35,53.12-18.48,80.91-.75,4.15,3.06,15.92-1.49,16.91-3.54-1.35-2.02-9.2-2.98-12.52-.6-7.82-1.8-15.54-3.52-23.17-8.21-13.72-15.18-28.27-18.6-44.07-8.02-20.99-27.73-33.65-44.14-47.74-16.67-13.84-31.41-30.07-50.18-41.2-15.79-9.91-32.16-19.06-46.42-31.17-39.09-33.35-45.59-87.54-46.2-135.91-3.75-31.51-3.14-62.97.65-94.45.27-7.98,5.65-5.65,6.79,1.14,3.45,10.71,7.4,21.24,11.48,31.73,30.54,82.52,129.54,114.86,157.09,199.47,7.28,22.37,13.07,45.61,13.34,69.25.76,15.51-2,32.1,2.63,47.01,5.19,8.59,9.02,17.81,12.84,27.05.25-.02.5-.04.75-.07Z"/>
    </g>
  </g>
</svg>