<?xml version="1.0" encoding="UTF-8"?>
<svg id="Layer_2" data-name="Layer 2" xmlns="http://www.w3.org/2000/svg" xmlns:xlink="http://www.w3.org/1999/xlink" viewBox="0 0 600 650">
  <defs>
    <style>
      .cls-1, .cls-2, .cls-3 {
        fill: none;
      }

      .cls-2 {
        clip-path: url(#clippath-1);
      }

      .cls-4 {
        fill: #f8cf45;
      }

      .cls-5 {
        fill: #434b58;
      }

      .cls-3 {
        clip-path: url(#clippath);
      }
    </style>
    <clipPath id="clippath">
      <circle class="cls-1" cx="300" cy="300" r="200"/>
    </clipPath>
    <clipPath id="clippath-1">
      <rect class="cls-1" x="199.63" y="82.15" width="294" height="399"/>
    </clipPath>
  </defs>
  <g id="Layer_1-2" data-name="Layer 1">
    <polygon class="cls-1" points="600 600 300 600 0 600 0 300 0 0 300 0 600 0 600 300 600 600"/>
    <g>
      <g class="cls-3">
        <rect class="cls-4" x="100" y="100" width="400" height="400"/>
      </g>
      <g class="cls-2">
        <path class="cls-5" d="m334.28,455.11c6.99.75,19.68,2.53,20.55,2.89.36.16.34.47-.09,1.55-1.62,4.11-7.3,7.94-15.88,10.69-17.77,5.71-48.92,7.94-79.85,5.72-21.6-1.56-43.59-5.23-49.99-8.37-1.75-.85-1.82-1.12-.52-1.99,4.58-3.08,19.83-6.66,38.67-9.08,3.28-.42,3.04-.44,5.68.49,8.61,3.05,17.93,4.77,28.6,5.3,3.22.16,10.17.09,13.29-.14,11.6-.82,22.5-3,32.85-6.57,2.76-.96,2.56-.94,6.68-.5Zm-23.78-1.66c5.11.2,8.71.38,9.1.49l.37.09-.37.16c-.2.07-1.75.49-3.44.92-18.01,4.55-36.77,5.25-52.53,1.96-3.38-.71-6.19-1.48-6-1.66.31-.31,15.94-1.46,24.95-1.85,8.3-.34,20.3-.39,27.93-.11Zm39.1-6.43c1.92,1.91,2.88,3.04,3.92,4.65.79,1.22.87,1.54.42,1.54-.17,0-1.65-.22-3.3-.49-1.65-.27-4.81-.74-7.05-1.05-2.23-.32-4.22-.6-4.43-.66l-.37-.09.49-.32c.27-.17,1.16-.68,1.97-1.13,1.41-.8,4.75-2.97,5.78-3.75.27-.21.57-.38.66-.38s.95.76,1.89,1.69Zm-63.62-63.34c3.31,1.14,8.51,5.02,14.1,10.53,4.84,4.75,8.28,8.76,15.9,18.52,6.03,7.73,8.43,10.59,12.51,14.97.9.96,1.64,1.81,1.64,1.87,0,.2-.85,1.25-1.71,2.14-4.17,4.31-12.28,7.35-23.66,8.87-5.54.75-9.58.98-16.65.98-6.11,0-8.33-.09-13.41-.55-23.6-2.15-42.03-9.63-43.37-17.62-.46-2.67,1.18-5.63,4.68-8.44,3.06-2.46,6.79-4.58,14.89-8.42,16.45-7.81,21.58-11.28,28.56-19.34,2.42-2.81,2.99-3.32,4.02-3.7.55-.21,1.59-.14,2.51.18Zm-1.01-56.33c2.96,8.54,7.22,17.58,12.98,27.62,3.3,5.75,6.3,10.59,13.26,21.47,8.93,13.94,12.07,19.18,15.27,25.59,3.89,7.78,5.67,13.34,5.94,18.5.07,1.39-.12,3.76-.34,4.35l-.14.33-1-1.05c-2.52-2.63-5.44-6.11-11.98-14.27-7.5-9.36-9.81-12-14.85-17.04-7.06-7.05-12.81-11.34-17.11-12.81-1.4-.47-3.37-.55-4.58-.2-1.72.53-2.84,1.4-5.18,4.08-4.56,5.2-6.66,7.1-11.22,10.15-3.47,2.33-6.36,3.91-14.95,8.18-8.26,4.11-10.69,5.43-13.53,7.32-7.98,5.3-10.91,10.83-8.65,16.29,1.07,2.57,3.65,5.23,7.27,7.48,11.24,6.99,34.17,11.72,54.71,11.31,17.97-.36,31.43-3.69,38.39-9.49.98-.82,2.19-2.05,2.76-2.8.2-.25.41-.46.47-.46.07,0,.8.63,1.62,1.39,2.17,2.03,4.55,4.13,7.74,6.84,1.86,1.58,2.79,2.45,2.77,2.58-.04.22-2.18,1.71-4.22,2.93-2.88,1.72-7.84,4.13-8.92,4.34-.37.07-1.61.01-3.81-.18-23.24-2.09-49.61-1.49-75.85,1.73-1.96.25-3.78.42-4.02.38-.58-.07-3.72-1.6-6.02-2.92-8.7-4.97-15.34-11.27-19.94-18.95-2.87-4.76-4.9-10.24-5.75-15.44-.79-4.87-.64-10.43.42-15.13,1.89-8.45,6.47-16.63,14.22-25.47,6-6.84,12.41-12.84,29.33-27.5,10.52-9.12,18.04-15.8,23.07-20.52.44-.42.87-.74.97-.73.1.01.46.87.87,2.05Zm11.27,1.81c20.12,19.72,28.96,28.83,36.97,38.05,16.01,18.45,23.87,32.25,25.65,45.04.31,2.13.31,6.66.01,8.6-1.05,6.79-4.05,12.59-9.24,17.75-.89.89-1.41,1.32-1.56,1.29-.22-.04-4.15-3.33-7.54-6.36-3.04-2.68-5.86-5.43-5.86-5.68,0-.12.14-.7.31-1.27.42-1.45.68-3.49.68-5.31,0-5.59-1.86-11.83-5.99-20.1-3.24-6.48-6.37-11.71-15.46-25.76-13.08-20.18-18.36-29.46-23.2-40.8-1.7-3.99-4.31-11.04-4.31-11.66,0-.26,1.23-1.5,1.48-1.5.11,0,3.74,3.47,8.07,7.71Zm16.35-75.87c5.01,1.35,7.07,5.13,4.74,8.69-2.56,3.91-9.72,6.93-18.95,7.98-4.18.47-11.07.54-11.07.1,0-.28,1.64-3.41,2.5-4.79,1.71-2.72,4.31-5.71,6.48-7.47,3.04-2.45,6.39-4.04,9.9-4.69,1.5-.28,5.09-.18,6.4.17Zm25.75-56.22c.23.15,1.06.91,1.86,1.7,4.61,4.64,7.15,10.09,7.96,17.09.25,2.1.17,7.43-.12,9.63-1.69,12.19-7.3,25.32-17.24,40.37-7.06,10.69-16.49,22.49-27.13,33.94-5.59,6.03-15.56,16.12-15.92,16.12-.07,0-.95-.81-1.94-1.82-1.23-1.24-1.83-1.94-1.93-2.24-.21-.69-.85-4.79-1.11-7.2-.41-3.64-.54-6.82-.47-10.64.11-4.82.49-8.5,1.33-12.55.66-3.25,1.92-7.57,2.3-7.95.14-.13.33-.17.75-.12,2.4.28,8.51.17,12.19-.23,11.81-1.29,20.04-5.49,22.26-11.32.76-2.02.66-4.37-.28-6.24-1.55-3.09-4.85-5.14-9.29-5.77-1.41-.2-4.64-.07-6.23.25-3.8.78-7.92,2.79-11.07,5.45-3.83,3.21-6.73,7.06-9.26,12.24-.57,1.17-1.08,2.17-1.14,2.2-.28.17-6.53-.76-9.55-1.43-10.4-2.3-19.46-6.43-26.64-12.15-1.99-1.59-5.45-5.02-6.91-6.85-5.68-7.14-8.44-15.3-7.95-23.58.27-4.45,1.28-8.19,3.32-12.34,1.8-3.67,4.04-6.77,7.01-9.76,1.7-1.71,4.42-4.04,4.98-4.27.31-.12.79-.1,3.01.2,10.68,1.4,21,2.01,34.39,2.01,16.83,0,30.99-1.06,43.85-3.26,1.91-.33,6.96-1.34,7.95-1.59.55-.15.58-.15,1.02.12Zm-109.66-1.72c2.98.87,8.55,2.14,12.93,2.95,1.48.27,2.73.54,2.78.59.05.05-.49.61-1.21,1.25-2.85,2.56-5.78,6.1-7.76,9.41-6.96,11.59-6.91,25.44.14,37.31,7.7,12.97,23.55,22.43,42.86,25.6,1.19.2,2.57.41,3.05.44.49.05.96.14,1.05.2.18.11.23-.1-.66,2.94-2.56,8.72-3.26,19.11-1.98,29.83.1.87.21,1.75.25,1.93.05.25.01.34-.1.34-.39,0-10.41-10.74-15.55-16.67-23.29-26.84-36.59-52.53-39.11-75.6-.27-2.5-.38-7.74-.2-10.03.31-3.84,1.12-7.86,2.09-10.43.16-.41.31-.41,1.43-.09Zm75.05-9.58c8.82.54,16.73,2.17,23.47,4.81,1.66.65,5.93,2.74,6.48,3.16.17.13.27.28.22.32-.1.11-1.05.31-4.01.85-17.86,3.29-42.01,4.42-63.38,2.96-5.29-.37-13.47-1.18-13.64-1.37-.27-.27,5.34-3.11,9.21-4.66,11.88-4.75,27.13-6.98,41.65-6.08Zm1.54-21.49c19.94,1.46,37.03,5.93,46.38,12.11,1.78,1.17,3.8,3.15,4.43,4.33.39.74.43.89.43,1.85,0,1.38-.28,1.96-1.59,3.27-1.56,1.56-3.94,2.95-7.36,4.34-2.78,1.12-8.35,2.84-9.21,2.84-.22,0-.8-.3-1.55-.79-7.95-5.18-18.2-8.24-31.41-9.39-3.14-.27-12.51-.31-15.5-.06-16.2,1.33-28.96,5.18-39.66,11.97-1.39.89-1.81,1.1-2.19,1.1-.63,0-4.88-.73-8.65-1.48-3.52-.71-10.04-2.29-10.35-2.51-.18-.15-.15-.26.37-1.27,2.23-4.32,6.14-8.77,10.72-12.22,11-8.27,27.29-13.14,47.74-14.26,3.08-.17,14.31-.07,17.41.16Zm-19.52-81.81c-.14.16-.5,1.07-.84,2.01-3.81,11.04-12.5,23.29-25.01,35.27-8.97,8.59-16.9,15.08-36.5,29.86-11.13,8.4-14.27,10.97-17.97,14.78-2.83,2.9-4.56,5.5-5.41,8.1-.31.94-.34,1.23-.34,2.77-.01,1.48.02,1.86.27,2.65,1.18,3.74,4.5,7.04,10.42,10.35,3.04,1.7,7.71,3.7,12.12,5.22,1.12.38,2.08.74,2.14.8.06.06-.09.7-.34,1.5-.84,2.66-1.44,5.55-1.82,8.77-.25,2.09-.21,9.35.06,11.75.49,4.34,1.13,7.91,2.17,12.04,2.66,10.56,7.37,21.64,14.06,33.11,9.08,15.53,22.29,32.15,39.97,50.26,1.25,1.29,2.36,2.47,2.44,2.63.17.29,1.61,5.97,1.61,6.31,0,.43-9.78,9.28-23.44,21.2-11.06,9.66-14.41,12.66-19.25,17.22-9.41,8.88-15.82,16.4-20.08,23.56-6,10.06-8.27,20.46-6.74,30.94,1.89,12.94,9.25,24.85,20.73,33.54,2.19,1.66,4.69,3.26,8.1,5.2.33.2.55.39.49.44-.05.05-1.07.25-2.25.43-10.68,1.61-20.9,3.81-27.19,5.87-5.77,1.88-8.82,3.68-9.9,5.83-.33.64-.37.85-.37,1.83s.05,1.19.36,1.81c.7,1.39,2.46,2.77,4.88,3.81,9.23,3.97,34.21,7.34,62.98,8.49,4.88.18,20.1.2,24.54,0,16.94-.74,30.13-2.47,40.53-5.31,13.27-3.63,20.88-8.81,22.82-15.55.16-.53.36-1.01.46-1.06.27-.15,6.96,1.14,20.9,4.01,12.72,2.63,18.63,3.76,24.67,4.77,18.41,3.06,33.65,3.8,49.4,2.4,7.95-.7,16.98-2.18,26.94-4.37,6.35-1.4,10.43-2.51,11.28-3.08.17-.1.38-.38.48-.63.17-.38.16-.47-.04-.87-.27-.55-.98-.94-2.25-1.21-1.77-.38-3.79-.11-11.65,1.54-14.47,3.04-21.75,4.08-32.52,4.7-3.42.2-12.93.2-16.49,0-14.79-.8-24.9-2.37-51.2-7.94-7.8-1.65-16.34-3.4-18.54-3.78-.58-.1-1.01-.25-1.18-.41-.16-.15-.43-.7-.62-1.24-.92-2.69-2.79-5.35-6.02-8.55-.85-.85-1.55-1.59-1.55-1.65s.7-.84,1.57-1.72c.86-.89,1.91-2.03,2.31-2.53,6.89-8.48,9.19-18.22,6.94-29.4-2.83-14.11-13.09-30.28-32.54-51.3-6.46-6.99-15.98-16.57-29.92-30.13-4.76-4.63-8.65-8.46-8.65-8.54s2.49-2.63,5.51-5.68c5.66-5.68,7.98-8.12,11.97-12.49,26.29-28.88,40.86-54.4,43.12-75.56.25-2.28.27-6.69.06-8.77-.79-7.71-3.59-13.98-8.66-19.34-.59-.62-1.07-1.14-1.07-1.18s.65-.27,1.45-.52c6.72-2.05,11.48-4.42,14.11-7.01,3.24-3.2,3.59-6.84,1.02-10.33-1.71-2.31-4.61-4.47-8.97-6.63-15.16-7.55-41.49-11.52-64.76-9.73-17.68,1.35-32.6,5.73-43.22,12.68-6.46,4.23-11.07,9.05-14.36,15.02-.65,1.21-.89,1.51-1.09,1.51-.37,0-4.61-1.45-6.99-2.39-9.55-3.75-15.11-7.84-16.14-11.85-.79-3.03.81-6.35,5.15-10.69,3.51-3.51,7.33-6.53,18.95-14.94,10-7.23,14.26-10.43,19.99-15.02,12.34-9.88,21.05-18.5,27.96-27.73,6.79-9.04,11.49-19.07,11.58-24.63.01-.9-.02-1.18-.18-1.33-.18-.18-.22-.18-.44.11Z"/>
      </g>
    </g>
  </g>
</svg>