<?xml version="1.0" encoding="UTF-8"?>
<svg id="Layer_2" data-name="Layer 2" xmlns="http://www.w3.org/2000/svg" viewBox="0 0 1340 603.73">
  <g id="Réteg_1" data-name="Réteg 1">
    <g>
      <path d="m1038.57,457.73h24.71v25.26c0,4.96-1.31,10.17-3.94,15.63-2.62,5.47-6.16,10.24-10.61,14.33l-8.75-8.2c7.14-7.14,10.79-14.61,10.93-22.42h-12.36v-24.6Zm112.1,146l-14.33-10.01,29.56-42.84c-4.14.56-7.29.84-9.47.84-13.26,0-24.38-4.48-33.36-13.42-8.98-8.95-13.47-19.98-13.47-33.11s4.89-23.79,14.68-33.26c9.79-9.47,21.21-14.21,34.26-14.21s24.23,4.83,33.95,14.47c9.72,9.65,14.58,20.86,14.58,33.63,0,10.31-3.3,20.28-9.89,29.89l-46.53,68Zm37.47-96.63c0-8.28-2.91-15.38-8.74-21.31-5.83-5.93-12.77-8.89-20.84-8.89-8.56,0-15.72,2.93-21.47,8.79-5.75,5.86-8.63,13.14-8.63,21.84,0,8,3.05,14.86,9.16,20.58,6.11,5.72,13.47,8.58,22.11,8.58,7.93,0,14.65-2.86,20.16-8.58,5.51-5.72,8.26-12.72,8.26-21Zm130.89,21.22c7.09,4.02,12.36,9.09,15.8,15.23,3.44,6.13,5.16,12.43,5.16,18.88,0,11.33-4.59,21.04-13.76,29.11-9.18,8.07-20.32,12.1-33.44,12.1s-24.46-4-33.6-12c-9.14-8-13.71-17.73-13.71-29.21,0-13.84,6.67-25.21,20-34.11-5.66-4.93-9.78-9.8-12.36-14.59-2.58-4.79-3.87-10.4-3.87-16.84,0-10.51,4.28-19.67,12.85-27.46,8.57-7.79,18.66-11.69,30.27-11.69s21.72,3.86,30.32,11.58c8.6,7.73,12.9,16.77,12.9,27.14,0,12.09-5.52,22.71-16.56,31.86Zm1.29,33.71c0-6.88-2.78-12.8-8.33-17.74-5.56-4.94-12.24-7.42-20.05-7.42s-13.98,2.46-19.14,7.37c-5.16,4.91-7.74,10.98-7.74,18.22s2.7,13.01,8.12,17.74c5.41,4.73,12.17,7.1,20.27,7.1,7.53,0,13.89-2.44,19.08-7.31,5.2-4.87,7.79-10.86,7.79-17.95Zm-4.41-64.73c0-6.42-2.3-11.89-6.88-16.43-4.59-4.53-10.14-6.8-16.66-6.8s-11.99,2.27-16.61,6.8c-4.62,4.53-6.93,10.01-6.93,16.43s2.31,11.9,6.93,16.43c4.62,4.53,10.16,6.8,16.61,6.8s12.08-2.26,16.66-6.8c4.59-4.53,6.88-10.01,6.88-16.43Zm-1136.26-39.57h31.6c15.73,0,28.53,3.91,38.42,11.73,9.89,7.82,14.83,17.84,14.83,30.05,0,9.76-3.2,18.39-9.59,25.87-6.4,7.48-16.37,12.75-29.93,15.8l42.38,62.43h-22.85l-40.47-60h-4.47v60h-19.92v-145.88Zm19.92,17.64v50.84c29.39.61,44.09-7.9,44.09-25.54,0-6.18-1.72-11.24-5.15-15.17-3.44-3.93-8.02-6.6-13.74-8.02-5.72-1.41-14.12-2.12-25.19-2.12Zm231.85-8.6v21.18c-14.78-7.24-28.36-10.86-40.76-10.86-15.92,0-29.32,5.14-40.22,15.41-10.9,10.28-16.35,22.9-16.35,37.87s5.57,27.98,16.72,38.19c11.16,10.2,25.11,15.31,41.89,15.31,12.19,0,25.09-3.83,38.72-11.51v21.4c-12.41,6.59-25.84,9.9-40.33,9.9-21.22,0-39.35-7.18-54.41-21.55-15.05-14.36-22.58-31.68-22.58-51.95s7.4-36.96,22.2-51.14c14.8-14.18,32.63-21.28,53.49-21.28,13.41,0,27.28,3.01,41.62,9.03Zm216.93-9.03h35.38c28.02,0,48.85,7.4,62.52,22.21,13.67,14.81,20.5,31.71,20.5,50.72s-7.06,36.1-21.18,50.83c-14.12,14.73-34.66,22.1-61.59,22.1h-35.62v-145.86Zm19.92,19.47v106.7h1.15c14.81,0,25.95-.67,33.44-2.01,7.48-1.33,14.57-4.25,21.29-8.76,6.71-4.5,12.06-10.48,16.02-17.91,3.97-7.44,5.96-15.63,5.96-24.56,0-11.22-3.17-21.37-9.51-30.46-6.33-9.08-13.91-15.19-22.73-18.32-8.82-3.13-20.66-4.69-35.55-4.69h-10.08Zm144.65-19.47h19.71v145.88h-19.71v-145.88Zm-747.14,0L0,603.63h20.75l14.18-31.61,7.45-16.62,23.36-52.09,23.62,52.09,7.54,16.62,14.25,31.61h20.9l-66.25-145.9Zm471.49,0l-65.79,145.9h20.75l14.18-31.61,7.45-16.62,23.36-52.09,23.62,52.09,7.54,16.62,14.25,31.61h20.9l-66.25-145.9Zm405.5,0l-65.79,145.9h20.75l14.18-31.61,7.45-16.62,23.36-52.09,23.62,52.09,7.54,16.62,14.25,31.61h20.9l-66.25-145.9Z"/>
      <path d="m786.2,115.49l-7.09,15.82h-218.69l-7.06-15.82h232.84Zm-213.65,42.98h194.39l7.09-15.82h-208.54l7.06,15.82Zm12.13,27.16h170.09l7.09-15.82h-184.24l7.06,15.82Zm12.13,27.16h145.79l7.09-15.82h-159.94l7.06,15.82Zm12.13,27.16h121.49l7.09-15.82h-135.64l7.06,15.82Zm12.13,27.16h97.2l7.09-15.82h-111.34l7.06,15.82Zm12.13,27.16h72.9l7.09-15.82h-87.05l7.06,15.82Zm12.13,27.16h48.6l7.09-15.82h-62.75l7.06,15.82Zm12.13,27.16h24.3l7.09-15.82h-38.45l7.06,15.82Zm12.13,27.16l7.09-15.82h-14.15l7.06,15.82Zm257.56-.14h-22.8l-36.62-81.78h-136.92c5.69-12.66,18.28-20.81,32.16-20.81h95.44l-75.64-168.92h-226.37l-75.73,168.92h97.45c13.89,0,26.5,8.14,32.21,20.81h-138.99l-36.73,81.91h-22.8l128.85-287.39-81.51,41.15h0c-.87-13.7,6.51-26.59,18.76-32.78L669.56,0l189.63,95.74c12.76,6.44,20.81,19.52,20.81,33.81h0s-81.51-41.15-81.51-41.15l128.63,287.26Zm-151.46-287.33l-6.63-14.8-99.47-50.21-99.47,50.21-6.64,14.8h212.2Z"/>
    </g>
  </g>
</svg>